Coordinates
version=1
nRows=5
nColumns=40
inDegrees=yes

Units are S.I. units (second, meters, Newtons, ...)
Angles are in degrees.

endheader
time	pelvis_tilt	pelvis_list	pelvis_rotation	pelvis_tx	pelvis_ty	pelvis_tz	hip_flexion_r	hip_adduction_r	hip_rotation_r	knee_angle_r	knee_angle_r_beta	ankle_angle_r	subtalar_angle_r	mtp_angle_r	hip_flexion_l	hip_adduction_l	hip_rotation_l	knee_angle_l	knee_angle_l_beta	ankle_angle_l	subtalar_angle_l	mtp_angle_l	lumbar_extension	lumbar_bending	lumbar_rotation	arm_flex_r	arm_add_r	arm_rot_r	elbow_flex_r	pro_sup_r	wrist_flex_r	wrist_dev_r	arm_flex_l	arm_add_l	arm_rot_l	elbow_flex_l	pro_sup_l	wrist_flex_l	wrist_dev_l
     13.36000000	     -1.80621536	     -5.49052048	      2.82772423	      0.86284744	      0.93365889	      0.48374954	      9.14353963	      4.36442861	    -15.87637008	     13.31074215	     13.31074215	      8.61204139	      0.91965324	     -7.56759844	     31.65648170	     -9.97187487	      2.22845195	     63.54214661	     63.54214661	     12.59872592	    -18.79242758	     14.97417469	     -8.80312099	      6.88295646	      4.19242818	     22.49342327	    -15.50106043	     -6.66848029	     32.77457183	     45.72507672	      0.00000000	      0.00000000	     10.47312680	     -6.85852935	     -2.37283739	     38.88703696	     45.48009435	      0.00000000	      0.00000000
     13.37178571	     -1.87490433	     -5.32007487	      3.06794446	      0.86213487	      0.93403948	      0.48401429	      8.46739362	      4.32965434	    -15.78823373	     12.79869766	     12.79869766	      8.88193663	      0.81035224	     -7.57656002	     32.48185593	     -9.61929230	      2.20938809	     60.95196599	     60.95196599	     12.52033487	    -18.78376229	     15.03377276	     -8.80184734	      6.68545992	      3.93135554	     24.42725287	    -15.50492247	     -6.75025916	     34.01837015	     45.69921666	      0.00000000	      0.00000000	      8.94521902	     -6.89061760	     -2.16846826	     37.51481866	     45.44066629	      0.00000000	      0.00000000
     13.38357143	     -1.94030798	     -5.15131397	      3.30878070	      0.86144782	      0.93438508	      0.48432121	      7.78743744	      4.29884869	    -15.73353364	     12.27276945	     12.27276945	      9.10368437	      0.73061943	     -7.60522765	     33.08487656	     -9.25057318	      2.17849737	     58.05540036	     58.05540036	     12.31230924	    -18.73215734	     15.04014798	     -8.77778587	      6.47770156	      3.74122155	     26.28494381	    -15.50739911	     -6.80613896	     35.28473982	     45.66940934	      0.00000000	      0.00000000	      7.58770819	     -6.91263000	     -1.88536318	     35.92084802	     45.39313601	      0.00000000	      0.00000000
     13.39535714	     -2.00435277	     -4.99069803	      3.53339337	      0.86079123	      0.93460351	      0.48454669	      7.12506034	      4.26747518	    -15.69079199	     11.77441871	     11.77441871	      9.34727347	      0.67369407	     -7.66860822	     33.50877110	     -8.83939044	      2.20563014	     54.94441982	     54.94441982	     12.04356180	    -18.59769876	     15.02838985	     -8.76773965	      6.29405081	      3.61801099	     28.06145825	    -15.54722757	     -6.85763082	     36.56308246	     45.63784833	      0.00000000	      0.00000000	      6.34852002	     -6.91063048	     -1.54447960	     34.21443770	     45.33878419	      0.00000000	      0.00000000
     13.40714286	     -2.08886098	     -4.92968261	      3.76110758	      0.86027611	      0.93465031	      0.48471828	      6.48538813	      4.33235672	    -15.72361268	     11.26006430	     11.26006430	      9.42273585	      0.66337102	     -8.06692762	     33.74239924	     -8.51863634	      2.26036883	     51.54134803	     51.54134803	     11.22749196	    -18.46099283	     13.37976144	     -8.69108489	      6.25321652	      4.05405528	     29.17439530	    -16.11850335	     -6.91565130	     38.74405250	     45.58105149	      0.00000000	      0.00000000	      6.24736806	     -6.67981341	     -0.16329984	     30.17949121	     45.19732995	      0.00000000	      0.00000000
